<svg xmlns="http://www.w3.org/2000/svg" xmlns:xlink="http://www.w3.org/1999/xlink" width="500" zoomAndPan="magnify" viewBox="0 0 375 374.999991" height="500" preserveAspectRatio="xMidYMid meet" version="1.0"><defs><g/><clipPath id="fc0cf24863"><path d="M 75 225 L 306 225 L 306 240 L 75 240 Z M 75 225 " clip-rule="nonzero"/></clipPath><clipPath id="60e26b9461"><path d="M 75.371094 217.019531 L 305.941406 232.101562 L 304.640625 252 L 74.070312 236.917969 Z M 75.371094 217.019531 " clip-rule="nonzero"/></clipPath><clipPath id="d204fd22cb"><path d="M 75.371094 217.019531 L 305.941406 232.101562 L 304.640625 252 L 74.070312 236.917969 Z M 75.371094 217.019531 " clip-rule="nonzero"/></clipPath><clipPath id="93021376f3"><path d="M 126 250 L 327 250 L 327 262 L 126 262 Z M 126 250 " clip-rule="nonzero"/></clipPath><clipPath id="a5a8c2a074"><path d="M 125.902344 242.785156 L 327.214844 255.953125 L 326.101562 272.921875 L 124.792969 259.753906 Z M 125.902344 242.785156 " clip-rule="nonzero"/></clipPath><clipPath id="a6022729a2"><path d="M 125.902344 242.785156 L 327.214844 255.953125 L 326.101562 272.921875 L 124.792969 259.753906 Z M 125.902344 242.785156 " clip-rule="nonzero"/></clipPath></defs><g fill="#ffffff" fill-opacity="1"><g transform="translate(55.560288, 169.045482)"><g><path d="M 9.667969 -18.523438 C 9.667969 -18.523438 9.726562 -18.527344 9.726562 -18.527344 C 9.949219 -14.921875 9.890625 -11.167969 10.242188 -7.453125 C 10.507812 -4.621094 12.546875 -3.210938 15.789062 -3.515625 C 19.207031 -3.839844 19.367188 -7.183594 19.097656 -11.917969 C 18.734375 -17.652344 17.960938 -23.292969 18.300781 -29.152344 C 18.445312 -32.023438 18.347656 -32.429688 20.46875 -32.628906 C 22.472656 -32.820312 24.789062 -32.859375 26.914062 -33.0625 C 28.5625 -33.21875 32.035156 -33.605469 31.761719 -36.492188 C 31.597656 -38.261719 28.734375 -39.597656 27.484375 -39.597656 C 26.78125 -39.472656 26.132812 -39.410156 25.484375 -39.351562 C 18.765625 -38.714844 12.136719 -40.230469 5.414062 -39.59375 C 2.292969 -39.296875 -3.578125 -37.851562 -3.277344 -34.667969 C -3.027344 -32.011719 -0.195312 -31.628906 2.222656 -31.855469 C 3.753906 -32 5.546875 -32.527344 6.785156 -32.644531 C 8.496094 -32.804688 8.976562 -32.136719 9.183594 -29.957031 C 9.527344 -26.300781 9.484375 -22.371094 9.667969 -18.523438 Z M 9.667969 -18.523438 "/></g></g></g><g fill="#ffffff" fill-opacity="1"><g transform="translate(90.224068, 165.766916)"><g><path d="M 14.042969 -12.511719 L 20.824219 -13.152344 C 20.882812 -13.160156 21 -13.167969 21.058594 -13.175781 C 23.535156 -13.410156 23.050781 -2.179688 29.183594 -2.761719 C 31.246094 -2.957031 32.867188 -4.714844 32.632812 -7.191406 C 32.582031 -7.722656 32.40625 -8.300781 32.167969 -8.929688 L 31.304688 -10.515625 C 28.632812 -19.898438 23.207031 -35.746094 15.410156 -42.085938 C 14.277344 -42.75 13.414062 -43.085938 12.46875 -42.996094 C 5.511719 -42.339844 4.660156 -37.5 4.007812 -31.847656 C 3.074219 -24.085938 2.1875 -14.601562 3.113281 -4.816406 C 3.742188 -1.960938 5.761719 -0.722656 7.648438 -0.902344 C 9.59375 -1.085938 11.453125 -2.808594 11.28125 -5.886719 C 10.957031 -9.304688 11.203125 -9.863281 11.171875 -13.3125 C 11.929688 -12.847656 12.914062 -12.523438 14.042969 -12.511719 Z M 12.988281 -33.113281 C 15.441406 -29.179688 17.070312 -26.417969 18.617188 -22.640625 C 18.707031 -22.351562 18.851562 -22.066406 18.878906 -21.773438 C 18.90625 -21.476562 18.8125 -21.230469 18.28125 -21.179688 L 13.5625 -20.734375 C 12.03125 -20.589844 11.671875 -21.863281 11.464844 -24.046875 C 11.148438 -27.40625 12.460938 -30.503906 12.988281 -33.113281 Z M 12.988281 -33.113281 "/></g></g></g><g fill="#ffffff" fill-opacity="1"><g transform="translate(125.359461, 162.443743)"><g><path d="M 10.410156 -20.136719 C 10.648438 -20.101562 10.886719 -20.125 11.0625 -20.140625 C 11.238281 -20.15625 11.355469 -20.167969 11.527344 -20.246094 C 16.992188 -12.789062 23.019531 -6.9375 31.457031 -3.867188 C 32.546875 -3.671875 33.558594 -3.054688 34.738281 -3.167969 C 36.503906 -3.332031 37.796875 -4.765625 37.613281 -6.710938 C 37.53125 -7.59375 34.605469 -10.234375 32.828125 -10.777344 C 26.128906 -12.40625 22.417969 -17.707031 18.726562 -22.769531 C 18.109375 -23.601562 17.738281 -24.402344 17.671875 -25.109375 C 17.558594 -26.289062 18.082031 -27.050781 19.429688 -27.890625 C 25.222656 -31.414062 26.425781 -38.191406 25.863281 -44.144531 C 25.390625 -49.15625 21.484375 -52.710938 15.765625 -52.171875 C 9.632812 -51.59375 4.222656 -45.90625 4.152344 -39.117188 C 3.992188 -27.621094 3.964844 -21.609375 2.734375 -10.074219 C 2.476562 -7.789062 2.5 -4.996094 2.726562 -2.636719 C 2.890625 -0.867188 3.746094 0.597656 6.160156 0.367188 C 9.933594 0.0117188 9.796875 -7.113281 9.960938 -11.054688 C 10.148438 -15.949219 10.210938 -15.300781 10.410156 -20.136719 Z M 18.824219 -42.46875 C 18.96875 -38.4375 17.101562 -35.523438 13.863281 -33.3125 C 13.300781 -32.964844 12.785156 -32.734375 12.3125 -32.691406 C 10.898438 -32.558594 9.78125 -33.699219 9.589844 -35.707031 C 9.265625 -39.125 13.96875 -45.398438 17.210938 -45.707031 C 18.332031 -45.8125 18.578125 -45.0625 18.824219 -42.46875 Z M 18.824219 -42.46875 "/></g></g></g><g fill="#ffffff" fill-opacity="1"><g transform="translate(161.850738, 158.992328)"><g><path d="M 14.042969 -12.511719 L 20.824219 -13.152344 C 20.882812 -13.160156 21 -13.167969 21.058594 -13.175781 C 23.535156 -13.410156 23.050781 -2.179688 29.183594 -2.761719 C 31.246094 -2.957031 32.867188 -4.714844 32.632812 -7.191406 C 32.582031 -7.722656 32.40625 -8.300781 32.167969 -8.929688 L 31.304688 -10.515625 C 28.632812 -19.898438 23.207031 -35.746094 15.410156 -42.085938 C 14.277344 -42.75 13.414062 -43.085938 12.46875 -42.996094 C 5.511719 -42.339844 4.660156 -37.5 4.007812 -31.847656 C 3.074219 -24.085938 2.1875 -14.601562 3.113281 -4.816406 C 3.742188 -1.960938 5.761719 -0.722656 7.648438 -0.902344 C 9.59375 -1.085938 11.453125 -2.808594 11.28125 -5.886719 C 10.957031 -9.304688 11.203125 -9.863281 11.171875 -13.3125 C 11.929688 -12.847656 12.914062 -12.523438 14.042969 -12.511719 Z M 12.988281 -33.113281 C 15.441406 -29.179688 17.070312 -26.417969 18.617188 -22.640625 C 18.707031 -22.351562 18.851562 -22.066406 18.878906 -21.773438 C 18.90625 -21.476562 18.8125 -21.230469 18.28125 -21.179688 L 13.5625 -20.734375 C 12.03125 -20.589844 11.671875 -21.863281 11.464844 -24.046875 C 11.148438 -27.40625 12.460938 -30.503906 12.988281 -33.113281 Z M 12.988281 -33.113281 "/></g></g></g><g fill="#ffffff" fill-opacity="1"><g transform="translate(196.986133, 155.669155)"><g><path d="M 11.445312 -2.867188 C 11.179688 -4.449219 10.128906 -6.726562 8.480469 -6.570312 C 7.773438 -6.503906 7.011719 -5.71875 6.484375 -5.015625 C 3.140625 -0.773438 1.355469 4.273438 -0.675781 9.222656 C -0.816406 9.59375 -0.828125 10.132812 -0.777344 10.660156 C -0.652344 11.957031 -0.144531 13.574219 1.683594 13.402344 C 2.273438 13.347656 2.765625 12.882812 3.070312 12.320312 C 5.425781 7.042969 9.292969 3.285156 11.445312 -2.867188 Z M 11.445312 -2.867188 "/></g></g></g><g fill="#e15c45" fill-opacity="1"><g transform="translate(140.479773, 215.902634)"><g><path d="M 11.828125 -17.226562 C 11.828125 -17.226562 11.886719 -17.222656 11.886719 -17.222656 C 11.675781 -13.617188 11.160156 -9.898438 11.0625 -6.167969 C 10.988281 -3.324219 12.839844 -1.675781 16.097656 -1.589844 C 19.53125 -1.5 20.09375 -4.804688 20.394531 -9.535156 C 20.722656 -15.273438 20.636719 -20.964844 21.675781 -26.742188 C 22.167969 -29.574219 22.117188 -29.988281 24.25 -29.933594 C 26.261719 -29.878906 28.566406 -29.640625 30.699219 -29.585938 C 32.355469 -29.542969 35.851562 -29.507812 35.925781 -32.410156 C 35.972656 -34.1875 33.292969 -35.855469 32.050781 -36.007812 C 31.339844 -35.96875 30.6875 -35.984375 30.039062 -36 C 23.289062 -36.179688 16.890625 -38.480469 10.140625 -38.660156 C 7.003906 -38.742188 1 -38.011719 0.917969 -34.8125 C 0.847656 -32.148438 3.613281 -31.425781 6.039062 -31.359375 C 7.578125 -31.320312 9.421875 -31.625 10.667969 -31.59375 C 12.382812 -31.550781 12.777344 -30.828125 12.722656 -28.636719 C 12.625 -24.964844 12.109375 -21.070312 11.828125 -17.226562 Z M 11.828125 -17.226562 "/></g></g></g><g fill="#e15c45" fill-opacity="1"><g transform="translate(175.290837, 216.818626)"><g><path d="M 15.449219 -10.730469 L 22.257812 -10.550781 C 22.316406 -10.550781 22.4375 -10.546875 22.496094 -10.546875 C 24.980469 -10.480469 23.148438 0.609375 29.308594 0.769531 C 31.378906 0.824219 33.195312 -0.726562 33.261719 -3.210938 C 33.277344 -3.746094 33.175781 -4.339844 33.011719 -4.996094 L 32.347656 -6.671875 C 30.824219 -16.3125 27.34375 -32.695312 20.363281 -39.929688 C 19.320312 -40.726562 18.5 -41.164062 17.554688 -41.1875 C 10.566406 -41.371094 9.140625 -36.671875 7.808594 -31.136719 C 5.953125 -23.542969 3.929688 -14.234375 3.671875 -4.40625 C 3.949219 -1.496094 5.808594 -0.0234375 7.703125 0.0234375 C 9.65625 0.078125 11.707031 -1.410156 11.90625 -4.484375 C 12 -7.917969 12.308594 -8.445312 12.695312 -11.871094 C 13.390625 -11.320312 14.328125 -10.878906 15.449219 -10.730469 Z M 16.878906 -31.3125 C 18.84375 -27.113281 20.128906 -24.175781 21.210938 -20.238281 C 21.261719 -19.941406 21.371094 -19.640625 21.363281 -19.34375 C 21.355469 -19.046875 21.230469 -18.816406 20.699219 -18.828125 L 15.960938 -18.953125 C 14.421875 -18.996094 14.21875 -20.304688 14.277344 -22.492188 C 14.367188 -25.867188 16.042969 -28.785156 16.878906 -31.3125 Z M 16.878906 -31.3125 "/></g></g></g><g fill="#e15c45" fill-opacity="1"><g transform="translate(210.575513, 217.74708)"><g><path d="M 12.152344 -4.777344 C 12.429688 -1.863281 14.289062 -0.394531 16.183594 -0.34375 C 18.136719 -0.292969 20.191406 -1.78125 20.390625 -4.855469 C 20.328125 -9.242188 19.121094 -12.945312 19.246094 -17.683594 C 19.417969 -24.253906 22.695312 -29.441406 27.019531 -33.949219 C 27.335938 -34.710938 27.535156 -35.476562 27.554688 -36.1875 C 27.617188 -38.554688 26 -40.195312 23.867188 -40.253906 C 22.804688 -40.28125 21.550781 -39.898438 20.398438 -38.921875 C 18.1875 -36.015625 15.976562 -32.996094 14.464844 -29.65625 C 12.429688 -33.382812 9.742188 -39.203125 5.953125 -39.300781 C 3.820312 -39.359375 2.179688 -37.800781 2.121094 -35.550781 C 1.96875 -29.75 10.113281 -24.023438 10.929688 -16.835938 Z M 12.152344 -4.777344 "/></g></g></g><g fill="#e15c45" fill-opacity="1"><g transform="translate(238.696702, 218.48704)"><g><path d="M 3.566406 -22.953125 C 3.324219 -13.71875 8.519531 0.519531 19.234375 0.800781 C 27.996094 1.03125 33.15625 -8.191406 33.351562 -15.59375 C 33.660156 -27.257812 28.820312 -39.292969 18.28125 -39.570312 C 8.335938 -39.832031 3.808594 -32.1875 3.566406 -22.953125 Z M 19.105469 -7.851562 C 13.363281 -8.003906 11.660156 -19.894531 11.75 -23.210938 C 11.867188 -27.652344 13.738281 -31.277344 17.765625 -31.171875 C 23.328125 -31.023438 25.304688 -20.484375 25.179688 -15.75 C 25.070312 -11.546875 22.835938 -7.753906 19.105469 -7.851562 Z M 19.105469 -7.851562 "/></g></g></g><g fill="#e15c45" fill-opacity="1"><g transform="translate(275.520643, 219.455997)"><g><path d="M 2.464844 -3.667969 C 2.390625 -0.824219 3.519531 1.277344 6.480469 1.355469 C 9.203125 1.425781 12.105469 -0.746094 12.644531 -3.222656 C 12.695312 -5.175781 9.667969 -9.402344 7.773438 -9.453125 C 5.523438 -9.511719 2.84375 -6.679688 2.464844 -3.667969 Z M 5.015625 -19.480469 C 4.945312 -16.753906 5.921875 -13.410156 9.121094 -13.328125 C 11.960938 -13.253906 12.636719 -16.433594 12.929688 -18.5 C 13.664062 -23.929688 15.835938 -27.605469 16.054688 -36.015625 C 16.121094 -38.558594 14.988281 -40.425781 12.855469 -40.484375 C 9.597656 -40.570312 8.003906 -38.417969 7.269531 -35.355469 Z M 5.015625 -19.480469 "/></g></g></g><g clip-path="url(#fc0cf24863)"><g clip-path="url(#60e26b9461)"><g clip-path="url(#d204fd22cb)"><path fill="#9cb286" d="M 78.722656 225.628906 C 76.683594 227.304688 75.464844 229.777344 75.476562 232.417969 C 75.359375 237 76.628906 235.878906 76.628906 235.878906 C 76.628906 235.878906 95.289062 238.304688 126.007812 237.484375 C 156.722656 236.667969 175.152344 236.34375 185.878906 235.839844 C 196.609375 235.335938 210.539062 234.253906 218.402344 234.769531 C 226.265625 235.28125 303.40625 239.121094 303.40625 239.121094 L 304.835938 234.8125 L 305.003906 232.226562 C 305.003906 232.226562 267.992188 229.621094 235.175781 228.863281 C 202.359375 228.109375 78.722656 225.628906 78.722656 225.628906 Z M 78.722656 225.628906 " fill-opacity="1" fill-rule="nonzero"/></g></g></g><g clip-path="url(#93021376f3)"><g clip-path="url(#a5a8c2a074)"><g clip-path="url(#a6022729a2)"><path fill="#9cb286" d="M 128.84375 250.132812 C 127.066406 251.558594 126.007812 253.664062 126.019531 255.921875 C 125.925781 259.828125 127.027344 258.875 127.027344 258.875 C 127.027344 258.875 143.324219 260.96875 170.136719 260.308594 C 196.949219 259.652344 213.039062 259.398438 222.402344 258.980469 C 231.765625 258.566406 243.929688 257.660156 250.792969 258.109375 C 257.65625 258.558594 325.003906 261.9375 325.003906 261.9375 L 326.246094 258.261719 L 326.390625 256.058594 C 326.390625 256.058594 294.078125 253.785156 265.425781 253.097656 C 236.777344 252.410156 128.84375 250.132812 128.84375 250.132812 Z M 128.84375 250.132812 " fill-opacity="1" fill-rule="nonzero"/></g></g></g></svg>
